# xmcd
#
# Track frame offsets:
#	150
#	25096
#	47789
#	67410
#	83553
#	106501
#	122854
#	147806
#	170504
#	190145
#	206273
#	229217
#
# Disc length: 3274 seconds
#
# Revision: 1
# Processed by: cddbd v1.5.2PL0 Copyright (c) Steve Scherf et al.
# Submitted via: audiograbber 1.83.01
#
DISCID=9f0cc80c
DTITLE=Various Artist - CB20549
DYEAR=1900
DGENRE=Country
TTITLE0=Faith Hill (Vocal) - One
TTITLE1=Shania Twain (Vocal) - Forever And Always
TTITLE2=Chalee Tennison (Vocal) - Easy Lovin' You
TTITLE3=Terri Clark (Vocal) - Working Girl
TTITLE4=Lee Ann Womack (Vocal) - I Need You
TTITLE5=Tammy Cochran (Vocal) - What Kind of Woman Would I Be
TTITLE6=Faith Hill - One
TTITLE7=Shania Twain  - Forever And Always
TTITLE8=Chalee Tennison - Easy Lovin' You
TTITLE9=Terri Clark - Working Girl
TTITLE10=Lee Ann Womack - I Need You
TTITLE11=Tammy Cochran  - What Kind of Woman Would I Be
EXTD=
EXTT0=
EXTT1=
EXTT2=
EXTT3=
EXTT4=
EXTT5=
EXTT6=
EXTT7=
EXTT8=
EXTT9=
EXTT10=
EXTT11=
PLAYORDER=
